<?xml version="1.0" encoding="utf-8"?>
<!-- Generator: Adobe Illustrator 27.5.0, SVG Export Plug-In . SVG Version: 6.00 Build 0)  -->
<svg version="1.1" id="Layer_1" xmlns="http://www.w3.org/2000/svg" xmlns:xlink="http://www.w3.org/1999/xlink" x="0px" y="0px"
	 viewBox="0 0 500 350" style="enable-background:new 0 0 500 350;" xml:space="preserve">
<rect x="0.002" y="1.256" style="fill:#FFFFFF;" width="499.998" height="350"/>
<path style="fill:#473D2E;" d="M220.799,104.739c1.043-0.534,1.688-0.847,1.688-0.847s-0.11,0.658-0.424,1.864
	c-0.084,0.3-0.182,0.632-0.279,1.003c-0.124,0.358-0.287,0.717-0.47,1.127c-0.358,0.802-0.762,1.773-1.388,2.685
	c-0.3,0.482-0.632,0.978-0.997,1.485c-0.352,0.502-0.795,0.971-1.237,1.479c-0.873,1.042-1.982,1.948-3.18,2.913
	c-2.47,1.779-5.578,3.29-9.09,3.955c-3.499,0.671-6.958,0.515-9.962-0.072c-0.743-0.163-1.479-0.352-2.163-0.534
	c-0.697-0.209-1.362-0.476-1.981-0.723c-1.27-0.456-2.371-1.14-3.335-1.726c-0.495-0.28-0.938-0.613-1.329-0.945
	c-0.404-0.333-0.756-0.652-1.088-0.964c-0.684-0.593-1.147-1.257-1.499-1.831c-0.704-1.146-0.84-2.039-0.443-2.625
	c0.417-0.587,1.316-0.834,2.508-0.828c0.593,0,1.257,0.078,2.033,0.111c0.372,0.02,0.756,0.072,1.173,0.124
	c0.404,0.052,0.821,0.111,1.271,0.13c0.899,0.046,1.811,0.228,2.821,0.228c0.502,0.033,1.017,0.065,1.538,0.098
	c0.527-0.013,1.068,0,1.603,0c2.189-0.032,4.541-0.15,6.972-0.626c2.436-0.469,4.75-0.984,6.952-1.531
	c1.068-0.346,2.177-0.58,3.141-0.964c0.515-0.176,1.029-0.307,1.499-0.489c0.469-0.189,0.932-0.365,1.368-0.534
	c0.912-0.319,1.674-0.724,2.424-1.043c0.358-0.169,0.717-0.313,1.035-0.463C220.258,105.032,220.539,104.876,220.799,104.739z
	 M189.127,70.095c-0.163-3.883,0.306-6.874-0.997-7.59c-0.619-0.352-1.558-0.065-2.737,0.905c-1.121,0.984-2.45,2.724-3.447,5.252
	c-0.977,2.515-1.603,5.87-1.16,9.545c0.378,3.655,1.785,7.526,4.001,10.973c2.229,3.44,5.115,6.04,7.995,7.845
	c2.873,1.831,5.74,2.899,8.184,3.486c2.463,0.586,4.482,0.736,5.883,0.723c0.672,0.013,1.226-0.045,1.59-0.072
	c0.352-0.026,0.554-0.045,0.554-0.045s-0.586-0.508-1.589-1.401c-1.017-0.88-2.398-2.17-3.962-3.753
	c-3.141-3.16-6.854-7.585-9.956-12.38C190.346,78.742,189.238,73.998,189.127,70.095z M223.471,90.476
	c-0.965-1.284-1.772-2.814-2.418-4.509c-0.664-1.701-1.218-3.603-1.856-5.747c-1.245-4.313-1.909-8.803-2.652-12.152
	c-0.749-3.369-1.583-5.701-3.003-5.955c-1.389-0.261-3.141,1.759-4.32,5.532c-1.114,3.74-1.727,9.291,0.046,15.501
	c0.893,3.088,2.6,5.949,4.77,8.034c1.081,1.062,2.286,1.883,3.446,2.521c1.186,0.613,2.333,1.056,3.428,1.277
	c2.156,0.476,3.89,0.3,5.01,0.091c1.134-0.247,1.714-0.482,1.714-0.482s-0.488-0.397-1.329-1.088
	C225.503,92.796,224.428,91.766,223.471,90.476z M229.237,76.494c1.245,1.056,2.711,1.596,4.027,1.883
	c0.332,0.052,0.658,0.111,0.977,0.163c0.326,0.052,0.626,0.045,0.933,0.059c0.593,0.052,1.113,0,1.615-0.045
	c1.968-0.183,3.428-0.632,4.411-0.958c0.984-0.358,1.512-0.554,1.512-0.554s-0.554,0.013-1.59,0.013
	c-1.01-0.039-2.509-0.098-4.209-0.515c-1.7-0.41-3.304-1.153-4.216-2.6c-0.443-0.717-0.6-1.622-0.403-2.45
	c0.169-0.828,0.69-1.551,1.329-2.026c0.3-0.254,0.632-0.443,0.983-0.567c0.15-0.072,0.332-0.13,0.515-0.176l0.646-0.176
	c1.01-0.254,2.144-0.358,3.329-0.313c2.424,0.163,4.965,0.828,7.544,1.929c1.336,0.587,2.697,1.14,3.786,1.74
	c1.146,0.632,2.273,1.342,3.361,2.091c2.216,1.512,4.372,3.245,6.516,4.893c4.288,3.336,8.666,6.301,13.07,7.923
	c4.398,1.668,8.562,1.85,11.475,1.199c2.964-0.606,4.763-1.772,5.85-2.554c1.068-0.86,1.48-1.375,1.48-1.375
	s-0.646-0.26-1.863-0.599c-1.199-0.417-2.972-0.951-5.005-1.903c-2.052-0.938-4.222-2.313-6.834-4.372
	c-2.659-2.059-5.767-4.985-10.302-8.529c-2.287-1.752-4.938-3.629-8.092-5.297c-1.577-0.834-3.265-1.59-5.063-2.248
	c-1.857-0.645-3.597-1.023-5.343-1.42c-3.622-0.782-7.649-1.01-11.558-0.234c-1.948,0.423-3.902,1.121-5.655,2.183l-0.651,0.397
	c-0.222,0.143-0.489,0.339-0.71,0.508c-0.463,0.352-0.906,0.723-1.323,1.146c-0.417,0.397-0.788,0.814-1.12,1.271
	c-0.346,0.43-0.639,0.893-0.887,1.375c-1.023,1.851-1.381,3.89-1.049,5.721C227.022,73.907,228.012,75.451,229.237,76.494z
	 M131.79,29.249c0.424,0.775,0.756,1.434,1.088,1.948c0.69,0.997,1.056,1.544,1.056,1.544s-0.183-0.625-0.541-1.766
	c-0.163-0.573-0.293-1.296-0.476-2.091c-0.091-0.834-0.241-1.766-0.222-2.782c-0.02-1.017,0.156-2.104,0.43-3.18
	c0.365-1.068,0.86-2.104,1.596-3.017c1.518-1.786,3.91-2.938,6.652-3.199c2.717-0.287,5.721,0.365,8.327,1.681
	c1.309,0.638,2.515,1.499,3.59,2.469c1.069,0.984,2.04,2.052,2.809,3.284c0.208,0.28,0.384,0.606,0.567,0.912
	c0.169,0.326,0.371,0.593,0.527,0.971c0.333,0.684,0.665,1.349,0.952,2.059c0.567,1.375,0.958,2.704,1.257,4.131
	c0.586,2.841,0.775,5.851,0.847,8.861c0.111,6.021,0.111,11.872,1.036,16.875l0,0c-1.381-0.867-2.886-1.701-4.521-2.437
	c-3.44-1.557-7.395-2.515-10.842-2.534c-0.43-0.007-0.854-0.007-1.277-0.013c-0.397,0-0.814,0.065-1.218,0.104
	c-0.782,0.085-1.518,0.176-2.203,0.274c-1.388,0.345-2.58,0.625-3.531,0.971c-1.896,0.775-2.945,1.271-2.945,1.271
	s1.146,0.28,3.029,0.75c0.906,0.254,1.975,0.678,3.095,1.068c0.541,0.267,1.107,0.547,1.701,0.834
	c0.293,0.144,0.58,0.261,0.873,0.443c0.273,0.182,0.567,0.358,0.86,0.547c2.293,1.407,4.437,3.303,6.483,5.375
	c2.053,2.079,4.079,4.327,6.197,6.131c2.098,1.798,4.287,3.147,6.294,4.007c1.023,0.436,2.007,0.762,2.906,0.99
	c0.938,0.215,1.798,0.339,2.574,0.397c1.492,0.137,2.736-0.059,3.551-0.235c0.248,0.118,0.385,0.176,0.385,0.176
	s-0.007-0.091-0.026-0.261c0.639-0.15,0.984-0.306,0.984-0.306s-0.026-0.495-0.189-1.323c-0.169-0.847-0.501-1.942-0.99-3.316
	c-0.176-0.43-0.372-0.893-0.593-1.375c-0.039-0.587-0.078-1.199-0.111-1.857c-0.124-2.724-0.013-6.021,0.372-10.275
	c0.195-2.215,0.417-4.626,0.658-7.258c0.222-2.743,0.424-5.812,0.339-9.363c-0.091-3.518-0.508-7.564-1.824-11.78
	c-0.665-2.098-1.59-4.241-2.756-6.196c-0.554-0.958-1.186-1.902-1.818-2.828c-0.306-0.469-0.716-0.925-1.082-1.381
	c-0.371-0.456-0.736-0.912-1.16-1.329c-3.225-3.473-7.46-6.014-11.858-7.148c-4.398-1.134-8.92-1.023-12.829,0.371
	c-1.948,0.704-3.733,1.714-5.212,2.991c-1.499,1.264-2.646,2.808-3.395,4.392c-0.704,1.623-0.977,3.238-1.036,4.691
	c0.013,1.453,0.195,2.756,0.54,3.864C130.995,27.509,131.438,28.441,131.79,29.249z M276.019,71.659
	c0.978,1.59,2.15,2.86,3.355,3.701c2.424,1.727,4.659,2.079,6.32,2.079c1.675-0.039,2.867-0.437,3.636-0.814
	c0.795-0.352,1.166-0.645,1.166-0.645s-0.149-0.476-0.456-1.245c-0.332-0.736-0.795-1.811-1.315-2.984
	c-0.516-1.192-1.036-2.522-1.291-3.701c-0.273-1.231-0.286-2.078-0.442-3.395c-0.065-0.665-0.15-1.499-0.117-2.521
	c0.039-1.023,0.163-2.215,0.41-3.473c0.482-2.535,1.48-5.31,2.672-7.773c1.218-2.443,2.612-4.581,3.772-6.033
	c0.593-0.73,1.081-1.329,1.44-1.701c0.358-0.391,0.567-0.612,0.567-0.612s-0.287,0.052-0.828,0.13
	c-0.541,0.071-1.303,0.234-2.268,0.482c-1.922,0.521-4.58,1.551-7.369,3.316c-2.768,1.785-5.675,4.3-7.877,7.656
	c-1.095,1.662-2.02,3.532-2.612,5.545c-0.594,2.007-0.828,4.196-0.606,6.294C274.383,68.069,275.041,70.043,276.019,71.659z
	 M177.236,59.859c0.423,0.664,0.755,0.984,0.755,0.984s0.463-0.124,1.18-0.43c0.736-0.293,1.661-0.775,2.775-1.434
	c2.157-1.355,4.691-3.336,6.848-6.913c1.107-1.805,2.144-4.046,3.264-6.398c1.127-2.352,2.294-4.828,3.421-7.089
	c1.107-2.261,2.209-4.274,2.984-5.741c0.801-1.472,1.296-2.365,1.296-2.365s-0.977,0.28-2.6,0.821
	c-1.59,0.58-3.824,1.44-6.222,2.711c-2.404,1.257-5.023,2.899-7.369,4.854c-2.339,1.948-4.398,4.229-5.799,6.503
	c-2.776,4.606-2.717,8.848-1.922,11.52C176.213,58.205,176.819,59.228,177.236,59.859z M145.407,108.205
	c-2.091,0.645-4.991,1.023-8.333,0.039c-1.661-0.476-3.434-1.323-5.134-2.489c-1.7-1.206-3.349-2.737-4.632-4.567
	c-1.297-1.812-2.203-3.91-2.424-5.923c-0.111-1.003-0.052-1.981,0.182-2.938c0.039-0.261,0.137-0.404,0.176-0.612
	c0.045-0.098,0.045-0.189,0.104-0.307l0.176-0.313c0.123-0.222,0.208-0.443,0.358-0.678c0.15-0.222,0.3-0.443,0.443-0.684
	c0.632-0.86,1.329-1.577,2.144-2.183c0.801-0.593,1.785-1.049,2.86-1.447c2.163-0.775,4.789-1.062,7.375-1.127
	c5.239-0.098,10.373,0.567,14.699,1.068c4.346,0.541,7.969,0.958,10.484,1.108c2.521,0.15,3.916,0.052,3.916,0.052
	s-1.283-0.527-3.512-1.616c-2.229-1.082-5.408-2.724-9.506-4.542c-4.118-1.772-9.141-3.812-15.475-4.795
	c-3.18-0.43-6.744-0.632-10.672,0.306c-1.942,0.496-3.975,1.251-5.871,2.483c-1.883,1.225-3.564,2.86-4.893,4.711
	c-1.258,1.805-2.365,3.942-2.86,6.34c-0.502,2.215-0.515,4.509-0.169,6.62c0.704,4.255,2.684,7.754,5.004,10.438
	c4.704,5.395,10.803,7.982,16.133,8.34c2.665,0.17,5.127-0.261,7.095-1.017c1.994-0.775,3.486-1.831,4.489-2.86
	c0.528-0.476,0.899-0.997,1.206-1.446c0.319-0.436,0.528-0.86,0.651-1.225c0.261-0.73,0.248-1.192,0-1.446
	C148.867,106.974,147.512,107.593,145.407,108.205z M114.067,59.384c0.528,0.795,1.14,1.538,1.713,2.248
	c1.258,1.33,2.587,2.483,3.988,3.258c1.335,0.893,2.749,1.362,4.026,1.851c1.284,0.397,2.515,0.612,3.604,0.814
	c1.127,0.091,2.124,0.15,2.99,0.163c0.873,0.02,1.629-0.091,2.229-0.144c1.225-0.137,1.89-0.273,1.89-0.273
	s-0.502-0.495-1.407-1.271c-0.443-0.411-1.01-0.828-1.603-1.388c-0.58-0.567-1.245-1.186-1.961-1.811
	c-0.665-0.671-1.375-1.408-2.137-2.176c-0.645-0.828-1.44-1.57-2.014-2.463c-1.29-1.701-2.326-3.447-3.069-5.31
	c-0.769-1.877-1.055-3.91-1.107-5.975c-0.111-1.017,0.039-2.052,0.039-3.036c0.072-0.997,0.189-1.961,0.234-2.873
	c0.124-0.899,0.209-1.746,0.235-2.528c0.026-0.775,0.11-1.473,0.071-2.079c-0.071-1.218-0.378-2.104-0.997-2.456
	c-0.625-0.358-1.498-0.15-2.587,0.593c-0.521,0.371-1.166,0.854-1.74,1.518c-0.586,0.665-1.205,1.466-1.844,2.385
	c-0.567,0.971-1.179,2.052-1.701,3.31c-0.443,1.29-0.997,2.659-1.218,4.268c-0.58,3.108-0.521,6.991,1.01,10.744
	C113.129,57.657,113.585,58.537,114.067,59.384z M119.364,73.497c0.75-0.463,1.192-0.769,1.192-0.769s-0.391-0.339-1.153-0.847
	c-0.756-0.528-1.89-1.147-3.421-1.688c-1.525-0.469-3.466-0.899-5.662-0.716c-2.17,0.149-4.659,0.801-6.861,2.339
	c-2.209,1.492-3.955,3.473-5.089,5.467c-0.28,0.515-0.521,1.01-0.743,1.499c-0.222,0.495-0.378,0.996-0.528,1.466
	c-0.332,0.951-0.43,1.883-0.515,2.704c-0.111,1.674,0.111,3.017,0.58,3.948c0.462,0.932,1.055,1.447,1.759,1.544
	c1.453,0.215,2.893-1.218,4.509-2.919c0.443-0.411,0.814-0.873,1.284-1.297c0.222-0.221,0.43-0.456,0.664-0.677
	c0.241-0.209,0.469-0.43,0.704-0.658c0.971-0.86,1.994-1.694,3.18-2.509c1.251-0.899,2.457-1.733,3.577-2.541
	c1.186-0.899,2.456-1.713,3.59-2.496C117.579,74.63,118.622,73.939,119.364,73.497z M185.354,102.282c0,0-0.345-0.43-1.082-1.153
	c-0.371-0.352-0.84-0.814-1.446-1.192c-0.613-0.385-1.33-0.906-2.189-1.245c-0.873-0.345-1.851-0.782-2.977-0.945
	c-0.554-0.098-1.147-0.222-1.753-0.267c-0.593-0.026-1.231-0.039-1.896-0.02c-2.586,0.137-5.512,0.984-8.047,2.802
	c-2.521,1.824-4.372,4.235-5.519,6.62c-0.273,0.593-0.528,1.192-0.749,1.772c-0.176,0.593-0.319,1.186-0.457,1.759
	c-0.306,1.107-0.273,2.215-0.319,3.173c0.104,1.935,0.495,3.434,1.146,4.392c0.606,0.978,1.29,1.427,1.994,1.395
	c0.717-0.039,1.414-0.547,2.033-1.316c0.58-0.762,1.283-1.766,1.98-2.867c0.411-0.534,0.691-1.14,1.173-1.675
	c0.222-0.287,0.424-0.573,0.639-0.873c0.248-0.26,0.482-0.54,0.723-0.827c0.99-1.095,2.092-2.196,3.421-3.167
	c1.342-0.938,2.645-1.837,4.026-2.684c0.345-0.202,0.697-0.411,1.042-0.632c0.358-0.182,0.704-0.338,1.062-0.521
	c0.704-0.411,1.414-0.632,2.104-0.958c1.369-0.521,2.652-0.964,3.577-1.166C184.801,102.432,185.354,102.282,185.354,102.282z
	 M104.072,93.48c-1.153-0.091-2.45,0.032-3.805,0.508c-1.368,0.449-2.749,1.349-4.014,2.743c-0.651,0.664-1.186,1.564-1.727,2.476
	c-0.261,0.463-0.528,0.938-0.756,1.434c-0.215,0.521-0.423,1.042-0.612,1.57c-0.821,2.104-1.251,4.437-1.473,6.477
	c-0.065,1.055-0.091,2.033-0.091,2.906c-0.026,0.854,0.111,1.668,0.183,2.307c0.163,1.29,0.313,2.026,0.313,2.026
	s0.593-0.508,1.563-1.316c0.502-0.397,0.984-0.873,1.662-1.349c0.639-0.476,1.323-0.997,2.059-1.531
	c2.971-2.13,6.516-4.203,8.509-6.431c1.016-1.121,1.59-2.333,1.974-3.519c0.358-1.199,0.469-2.411,0.482-3.473
	c0.02-2.157-0.495-3.844-0.495-3.844S106.327,93.649,104.072,93.48z M132.474,92.372c-1.147,2.639,0.045,5.688,2.678,6.854
	c2.606,1.14,5.682-0.045,6.828-2.665c1.167-2.626-0.032-5.688-2.658-6.841C136.696,88.567,133.64,89.753,132.474,92.372z
	 M142.058,43.153c4.418,1.955,9.585-0.059,11.526-4.476c1.948-4.431-0.059-9.591-4.483-11.533c-4.424-1.942-9.585,0.065-11.52,4.496
	C135.634,36.051,137.641,41.211,142.058,43.153z M156.706,92.9c-2.567-1.134-5.558,0.033-6.692,2.6
	c-1.121,2.561,0.039,5.558,2.606,6.685c2.567,1.127,5.558-0.032,6.685-2.6C160.432,97.018,159.266,94.027,156.706,92.9z
	 M298.198,190.621c0.123,0.222,0.247,0.449,0.417,0.639c0.286,0.403,0.593,0.808,0.893,1.218c1.315,1.565,3.029,2.926,5.023,3.832
	c1.993,0.905,4.222,1.374,6.463,1.361c2.235-0.013,4.489-0.456,6.633-1.303c2.15-0.854,4.21-2.118,5.995-3.831
	c0.469-0.418,0.84-0.874,1.225-1.323l0.587-0.69c0.201-0.222,0.384-0.456,0.554-0.717c0.332-0.502,0.671-1.01,1.016-1.512
	c0.319-0.527,0.574-1.075,0.867-1.622c1.056-2.196,1.851-4.567,2.222-6.946c0.404-2.371,0.541-4.763,0.515-7.115
	c-0.098-4.685-0.814-9.265-1.538-13.65c-0.696-4.463-1.525-9.011-2.286-13.52c-0.775-4.522-1.479-9.063-1.903-13.611
	c-0.417-4.528-0.586-9.083-0.149-13.52l0.202-1.648c0.071-0.547,0.098-1.108,0.222-1.642l0.306-1.603l0.137-0.801
	c0.059-0.267,0.137-0.521,0.209-0.789c0.495-2.091,1.179-4.092,1.961-6.066c1.648-3.909,3.792-7.675,6.294-10.92
	c2.489-3.238,5.382-5.988,8.62-7.526c0.814-0.397,1.643-0.697,2.489-0.918c0.854-0.235,1.727-0.365,2.6-0.411
	c0.43-0.039,0.899-0.02,1.368-0.006c0.47,0,0.912,0.078,1.368,0.104c0.899,0.137,1.785,0.307,2.626,0.606
	c1.688,0.554,3.238,1.492,4.555,2.724c0.651,0.632,1.258,1.316,1.766,2.079c0.293,0.358,0.515,0.762,0.768,1.16
	c0.202,0.404,0.45,0.808,0.632,1.238c1.623,3.369,2.17,7.213,2.104,10.875c-0.098,3.668-0.847,7.226-2.071,10.425
	c-1.238,3.186-2.991,6.053-5.278,8.125c-2.254,2.065-5.127,3.147-7.811,2.769c-2.697-0.319-5.023-1.753-6.927-3.31
	c-1.869-1.57-3.186-3.479-3.929-5.401c-0.742-1.916-0.886-3.844-0.593-5.473c0.273-1.648,0.997-2.964,1.792-3.981
	c0.169-0.195,0.352-0.372,0.515-0.547c-0.307,2.261,1.16,4.417,3.434,4.919c2.385,0.541,4.77-0.958,5.304-3.355
	c0.547-2.398-0.964-4.77-3.362-5.304c-1.629-0.371-3.258,0.208-4.3,1.388c-0.814,0.417-1.753,1.049-2.639,1.994
	c-1.004,1.108-1.935,2.665-2.294,4.594c-0.391,1.922-0.222,4.17,0.632,6.346c0.828,2.196,2.34,4.326,4.431,6.046
	c1.036,0.84,2.17,1.629,3.453,2.294c1.29,0.645,2.743,1.153,4.301,1.335c0.775,0.104,1.583,0.079,2.378,0.013
	c0.809-0.117,1.623-0.261,2.397-0.56c1.577-0.535,2.998-1.473,4.288-2.581c2.547-2.267,4.47-5.297,5.877-8.64
	c1.414-3.349,2.326-7.043,2.697-10.966c0.346-3.909,0.163-8.092-1.205-12.275c-0.333-1.042-0.756-2.078-1.29-3.088
	c-0.502-1.023-1.147-2.013-1.864-2.945c-1.439-1.896-3.361-3.532-5.57-4.737c-1.095-0.606-2.268-1.056-3.473-1.466
	c-0.6-0.169-1.206-0.371-1.824-0.495c-0.606-0.124-1.231-0.261-1.896-0.332c-1.16-0.157-2.353-0.208-3.551-0.137
	c0.215-0.606,0.43-1.238,0.6-1.87c0.364-1.303,0.599-2.646,0.697-3.981c0.11-1.342,0.071-2.691-0.111-4.001
	c-0.071-0.665-0.202-1.271-0.332-1.883c-0.124-0.619-0.313-1.225-0.482-1.824c-0.417-1.206-0.873-2.372-1.479-3.479
	c-1.192-2.202-2.835-4.125-4.737-5.558c-0.938-0.73-1.922-1.362-2.938-1.87c-1.017-0.528-2.053-0.951-3.089-1.29
	c-4.19-1.375-8.365-1.544-12.275-1.206c-3.915,0.365-7.623,1.277-10.972,2.704c-3.336,1.407-6.366,3.323-8.64,5.864
	c-1.108,1.297-2.04,2.724-2.58,4.288c-0.3,0.782-0.443,1.602-0.554,2.391c-0.065,0.808-0.092,1.609,0.02,2.391
	c0.176,1.557,0.677,3.004,1.322,4.288c0.664,1.29,1.459,2.43,2.293,3.473c1.721,2.072,3.852,3.584,6.054,4.431
	c2.183,0.847,4.417,1.003,6.333,0.632c1.936-0.358,3.492-1.29,4.6-2.3c0.958-0.899,1.577-1.818,1.994-2.646
	c1.18-1.036,1.759-2.658,1.4-4.287c-0.547-2.404-2.919-3.91-5.316-3.369c-2.391,0.534-3.896,2.906-3.355,5.304
	c0.495,2.268,2.672,3.747,4.926,3.434c-0.169,0.169-0.365,0.339-0.554,0.502c-1.017,0.801-2.326,1.538-3.975,1.811
	c-1.636,0.287-3.558,0.15-5.48-0.612c-1.916-0.73-3.825-2.046-5.389-3.922c-1.57-1.903-3.004-4.222-3.323-6.913
	c-0.371-2.691,0.704-5.558,2.77-7.819c2.072-2.287,4.952-4.033,8.132-5.271c3.192-1.245,6.75-1.974,10.425-2.072
	c3.655-0.079,7.499,0.482,10.874,2.085c0.431,0.202,0.828,0.43,1.245,0.651c0.384,0.254,0.788,0.476,1.159,0.75
	c0.75,0.521,1.44,1.127,2.065,1.778c1.238,1.31,2.17,2.86,2.737,4.548c0.293,0.84,0.456,1.733,0.593,2.626
	c0.025,0.469,0.098,0.912,0.11,1.381c0.014,0.463,0.033,0.925-0.013,1.362c-0.046,0.879-0.163,1.753-0.417,2.593
	c-0.202,0.847-0.515,1.674-0.912,2.489c-1.531,3.238-4.287,6.131-7.525,8.633c-3.233,2.489-7.011,4.639-10.921,6.294
	c-1.968,0.775-3.975,1.46-6.072,1.962c-0.267,0.072-0.515,0.143-0.775,0.189l-0.808,0.156l-1.603,0.293
	c-0.54,0.117-1.094,0.156-1.629,0.234l-1.661,0.195c-4.437,0.424-8.991,0.274-13.52-0.15c-4.542-0.417-9.083-1.134-13.605-1.896
	c-4.522-0.769-9.07-1.603-13.52-2.3c-4.392-0.71-8.965-1.427-13.656-1.525c-2.353-0.032-4.743,0.104-7.115,0.508
	c-2.365,0.378-4.749,1.153-6.945,2.222c-0.548,0.287-1.095,0.554-1.604,0.873c-0.515,0.338-1.029,0.671-1.531,1.01
	c-0.26,0.156-0.495,0.352-0.716,0.547l-0.691,0.586c-0.456,0.391-0.898,0.762-1.31,1.238c-1.713,1.785-2.99,3.831-3.844,5.975
	c-0.848,2.157-1.29,4.405-1.304,6.646c0,2.235,0.456,4.457,1.369,6.451c0.898,2,2.254,3.72,3.831,5.037
	c0.403,0.3,0.801,0.606,1.218,0.899c0.189,0.15,0.411,0.28,0.632,0.417c0.209,0.13,0.431,0.254,0.652,0.358
	c0.886,0.463,1.759,0.801,2.632,1.075c1.74,0.567,3.453,0.854,5.135,0.971c1.667,0.117,3.309,0.046,4.892-0.189
	c1.577-0.247,3.102-0.658,4.489-1.329c1.401-0.664,2.672-1.551,3.642-2.697c0.971-1.141,1.603-2.476,1.896-3.786
	c0.294-1.303,0.294-2.58,0.163-3.747c-0.137-1.179-0.442-2.287-0.925-3.271c-0.488-0.984-1.153-1.844-1.948-2.443
	c-0.775-0.619-1.688-0.958-2.548-1.082c-0.873-0.117-1.688,0-2.391,0.228c-0.639,0.228-1.16,0.521-1.623,0.854
	c-2.346,0.574-3.818,2.926-3.29,5.291c0.541,2.391,2.919,3.903,5.311,3.356c2.41-0.521,3.902-2.906,3.361-5.297
	c-0.442-2.007-2.169-3.381-4.137-3.466c0.182-0.065,0.364-0.117,0.547-0.163c0.645-0.137,1.349-0.169,2.072,0
	c0.703,0.176,1.42,0.54,2.007,1.101c0.593,0.554,1.061,1.31,1.381,2.163c0.319,0.854,0.47,1.831,0.482,2.841
	c0,1.029-0.124,2.091-0.469,3.082c-0.346,0.983-0.913,1.883-1.701,2.639c-1.59,1.479-4.039,2.241-6.665,2.332
	c-2.626,0.111-5.538-0.384-8.125-1.538c-0.645-0.287-1.27-0.619-1.818-1.003c-0.144-0.085-0.28-0.183-0.403-0.287
	c-0.124-0.104-0.261-0.189-0.385-0.313c-0.241-0.228-0.488-0.45-0.736-0.69c-0.912-0.978-1.622-2.124-2.033-3.401
	c-0.43-1.284-0.554-2.691-0.403-4.124c0.156-1.427,0.605-2.867,1.303-4.19c0.69-1.329,1.629-2.535,2.75-3.473
	c0.247-0.261,0.599-0.476,0.912-0.704l0.482-0.333c0.157-0.123,0.326-0.234,0.502-0.313c0.346-0.189,0.69-0.371,1.036-0.561
	c0.358-0.182,0.749-0.3,1.107-0.462c1.506-0.554,3.114-0.964,4.88-1.088c1.759-0.137,3.603-0.117,5.524,0.052
	c1.923,0.195,3.91,0.495,5.962,0.892c2.04,0.398,4.157,0.873,6.359,1.356c2.17,0.476,4.372,0.951,6.581,1.44
	c2.228,0.495,4.496,1.01,6.802,1.485c4.62,0.964,9.422,1.851,14.439,2.398c5.023,0.534,10.281,0.762,15.656,0.202
	c0.685-0.084,1.355-0.169,2.021-0.254c0.678-0.098,1.342-0.15,2.026-0.306c0.657-0.137,1.322-0.274,1.987-0.397l0.996-0.202
	c0.333-0.078,0.665-0.176,0.997-0.267c0.658-0.169,1.316-0.352,1.98-0.561c-1.055,2.431-1.941,4.965-2.619,7.552
	c-0.078,0.319-0.182,0.652-0.261,0.984l-0.195,0.997c-0.137,0.665-0.28,1.329-0.397,2c-0.156,0.671-0.215,1.336-0.306,2.014
	c-0.085,0.664-0.183,1.335-0.261,2.013c-0.573,5.382-0.332,10.64,0.202,15.663c0.54,5.023,1.427,9.825,2.397,14.445
	c0.482,2.313,0.997,4.581,1.479,6.796c0.495,2.222,0.964,4.411,1.452,6.587c0.482,2.196,0.951,4.313,1.355,6.359
	c0.385,2.046,0.685,4.033,0.887,5.962c0.176,1.922,0.188,3.759,0.052,5.519c-0.124,1.773-0.528,3.375-1.095,4.88
	c-0.156,0.358-0.273,0.756-0.456,1.107c-0.183,0.346-0.371,0.691-0.566,1.043c-0.079,0.169-0.189,0.339-0.3,0.495l-0.353,0.482
	c-0.222,0.325-0.442,0.664-0.684,0.912c-0.945,1.114-2.15,2.059-3.473,2.749c-1.33,0.697-2.77,1.147-4.189,1.316
	c-1.441,0.15-2.855,0.013-4.132-0.404c-1.264-0.423-2.417-1.127-3.414-2.039c-0.222-0.247-0.449-0.495-0.691-0.743
	c-0.124-0.123-0.202-0.254-0.306-0.384c-0.099-0.124-0.189-0.254-0.287-0.404c-0.371-0.547-0.704-1.166-0.997-1.812
	c-1.147-2.593-1.642-5.499-1.551-8.125c0.098-2.632,0.86-5.075,2.353-6.665c0.736-0.795,1.642-1.362,2.639-1.701
	c0.99-0.352,2.053-0.476,3.075-0.476c1.01,0.013,1.98,0.163,2.834,0.482c0.86,0.326,1.604,0.788,2.157,1.381
	c0.58,0.593,0.925,1.31,1.107,2.014c0.17,0.716,0.15,1.427,0,2.065c-0.039,0.189-0.098,0.365-0.15,0.547
	c-0.104-1.968-1.473-3.694-3.473-4.144c-2.398-0.534-4.776,0.964-5.311,3.369c-0.541,2.391,0.964,4.77,3.375,5.31
	c2.365,0.528,4.711-0.944,5.284-3.29c0.332-0.449,0.632-0.984,0.853-1.629c0.234-0.697,0.332-1.512,0.234-2.372
	c-0.137-0.873-0.469-1.772-1.088-2.554c-0.612-0.801-1.46-1.466-2.436-1.955c-0.984-0.482-2.105-0.782-3.277-0.925
	c-1.173-0.123-2.431-0.13-3.747,0.176c-1.316,0.293-2.646,0.919-3.779,1.89c-1.146,0.964-2.032,2.242-2.697,3.636
	c-0.678,1.395-1.088,2.919-1.342,4.489c-0.234,1.583-0.3,3.226-0.176,4.899c0.117,1.675,0.398,3.396,0.964,5.128
	c0.28,0.873,0.612,1.753,1.068,2.633C297.938,190.191,298.06,190.406,298.198,190.621z M300.354,237.345
	c0.293,0.495,0.612,0.925,0.958,1.322c0.332,0.404,0.651,0.768,0.951,1.102c0.593,0.671,1.258,1.14,1.844,1.492
	c1.147,0.696,2.033,0.84,2.626,0.437c0.58-0.411,0.827-1.316,0.827-2.509c0-0.593-0.078-1.251-0.11-2.02
	c-0.026-0.385-0.072-0.775-0.124-1.18c-0.066-0.398-0.124-0.821-0.137-1.277c-0.059-0.898-0.222-1.811-0.234-2.821
	c-0.026-0.495-0.059-1.01-0.098-1.524c0.013-0.541,0.013-1.068,0-1.616c0.039-2.183,0.162-4.534,0.632-6.972
	c0.475-2.437,0.971-4.743,1.537-6.952c0.346-1.068,0.58-2.176,0.952-3.146c0.182-0.502,0.318-1.023,0.501-1.485
	c0.183-0.476,0.365-0.933,0.534-1.369c0.313-0.918,0.724-1.681,1.043-2.43c0.163-0.352,0.307-0.717,0.456-1.036
	c0.163-0.3,0.319-0.586,0.456-0.841c0.541-1.042,0.847-1.688,0.847-1.688s-0.664,0.104-1.87,0.424
	c-0.286,0.091-0.638,0.183-0.99,0.286c-0.364,0.118-0.723,0.287-1.14,0.457c-0.802,0.364-1.76,0.769-2.685,1.394
	c-0.469,0.3-0.971,0.633-1.479,0.997c-0.508,0.365-0.971,0.802-1.479,1.244c-1.043,0.867-1.948,1.975-2.906,3.174
	c-1.778,2.469-3.29,5.577-3.968,9.089c-0.665,3.506-0.509,6.952,0.085,9.963c0.162,0.742,0.345,1.479,0.521,2.169
	c0.222,0.704,0.489,1.355,0.736,1.982C299.097,235.285,299.774,236.374,300.354,237.345z M339.507,244.538
	c3.668,0.436,7.03-0.177,9.532-1.167c2.541-0.99,4.262-2.326,5.258-3.453c0.977-1.173,1.258-2.111,0.912-2.729
	c-0.73-1.297-3.72-0.834-7.604-0.997c-3.89-0.111-8.633-1.219-13.474-4.365c-4.803-3.096-9.227-6.81-12.394-9.95
	c-1.583-1.564-2.86-2.944-3.746-3.954c-0.886-1.017-1.4-1.59-1.4-1.59s-0.014,0.195-0.053,0.554
	c-0.02,0.358-0.071,0.912-0.071,1.596c0,1.395,0.137,3.414,0.729,5.871c0.587,2.443,1.661,5.31,3.473,8.196
	c1.811,2.873,4.411,5.754,7.864,7.995C331.975,242.746,335.832,244.166,339.507,244.538z M349.645,208.78
	c-3.362-0.756-7.852-1.401-12.152-2.665c-2.144-0.626-4.053-1.192-5.76-1.844c-1.7-0.658-3.219-1.46-4.509-2.424
	c-1.276-0.951-2.307-2.021-3.01-2.835c-0.704-0.84-1.095-1.329-1.095-1.329s-0.234,0.587-0.482,1.714
	c-0.208,1.134-0.384,2.854,0.098,5.011c0.222,1.095,0.651,2.241,1.271,3.434c0.639,1.16,1.467,2.365,2.516,3.44
	c2.091,2.17,4.951,3.87,8.033,4.77c6.216,1.771,11.761,1.166,15.508,0.039c3.772-1.16,5.785-2.919,5.531-4.301
	C355.347,210.356,353.007,209.529,349.645,208.78z M356.05,192.855c1.068-1.752,1.76-3.7,2.189-5.662
	c0.775-3.902,0.541-7.929-0.234-11.552c-0.404-1.746-0.775-3.48-1.44-5.343c-0.639-1.785-1.4-3.479-2.229-5.063
	c-1.668-3.147-3.551-5.812-5.297-8.099c-3.551-4.528-6.47-7.636-8.535-10.288c-2.06-2.619-3.44-4.789-4.379-6.835
	c-0.958-2.026-1.479-3.798-1.902-5.01c-0.346-1.212-0.605-1.864-0.605-1.864s-0.509,0.411-1.369,1.486
	c-0.775,1.088-1.935,2.88-2.554,5.844c-0.658,2.919-0.456,7.076,1.199,11.474c1.629,4.411,4.587,8.783,7.929,13.07
	c1.655,2.144,3.382,4.3,4.893,6.516c0.743,1.101,1.453,2.222,2.085,3.362c0.593,1.094,1.166,2.449,1.746,3.785
	c1.101,2.58,1.766,5.121,1.922,7.545c0.039,1.186-0.052,2.32-0.306,3.33l-0.183,0.651c-0.039,0.183-0.091,0.358-0.176,0.521
	c-0.124,0.339-0.319,0.671-0.554,0.977c-0.482,0.625-1.199,1.152-2.046,1.329c-0.828,0.189-1.733,0.032-2.438-0.411
	c-1.452-0.912-2.195-2.515-2.612-4.216c-0.398-1.7-0.469-3.192-0.495-4.202c0-1.022,0-1.59,0-1.59s-0.195,0.528-0.541,1.505
	c-0.332,0.984-0.788,2.438-0.964,4.418c-0.046,0.495-0.092,1.017-0.046,1.616c0.013,0.299,0.013,0.605,0.059,0.925
	c0.052,0.319,0.11,0.651,0.163,0.983c0.286,1.311,0.814,2.782,1.883,4.014c1.036,1.238,2.593,2.223,4.424,2.521
	c1.824,0.333,3.857-0.025,5.721-1.049c0.476-0.247,0.932-0.534,1.368-0.893c0.443-0.325,0.88-0.703,1.277-1.12
	c0.417-0.397,0.775-0.848,1.141-1.316c0.163-0.229,0.371-0.489,0.508-0.71L356.05,192.855z M407.641,272.679
	c-1.134-4.398-3.694-8.634-7.147-11.852c-0.417-0.424-0.873-0.795-1.329-1.167c-0.456-0.358-0.926-0.775-1.382-1.075
	c-0.925-0.638-1.87-1.27-2.841-1.83c-1.948-1.148-4.104-2.085-6.189-2.75c-4.209-1.316-8.262-1.727-11.787-1.817
	c-3.538-0.092-6.606,0.123-9.362,0.338c-2.633,0.235-5.037,0.456-7.252,0.652c-4.262,0.391-7.552,0.501-10.269,0.371
	c-0.665-0.032-1.277-0.071-1.857-0.11c-0.482-0.222-0.944-0.417-1.388-0.587c-1.368-0.495-2.456-0.827-3.304-0.983
	c-0.827-0.17-1.329-0.202-1.329-0.202s-0.149,0.358-0.313,0.983c-0.17-0.013-0.268-0.025-0.268-0.025s0.059,0.137,0.183,0.391
	c-0.163,0.814-0.358,2.053-0.234,3.551c0.071,0.775,0.183,1.636,0.404,2.567c0.228,0.899,0.554,1.876,0.977,2.912
	c0.873,2,2.223,4.196,4.027,6.281c1.798,2.124,4.039,4.163,6.131,6.209c2.072,2.04,3.968,4.184,5.375,6.49
	c0.183,0.286,0.358,0.573,0.535,0.859c0.182,0.28,0.293,0.574,0.442,0.86c0.294,0.593,0.573,1.16,0.834,1.7
	c0.404,1.128,0.814,2.189,1.082,3.102c0.449,1.884,0.742,3.03,0.742,3.03s0.502-1.056,1.277-2.952
	c0.346-0.951,0.619-2.137,0.965-3.524c0.098-0.685,0.195-1.434,0.273-2.216c0.032-0.397,0.11-0.814,0.104-1.218
	c0-0.411,0-0.841-0.02-1.258c-0.026-3.453-0.972-7.408-2.528-10.849c-0.749-1.629-1.563-3.146-2.437-4.521l0,0
	c5.01,0.919,10.861,0.919,16.875,1.042c3.017,0.059,6.027,0.255,8.867,0.834c1.408,0.3,2.75,0.691,4.118,1.258
	c0.704,0.287,1.382,0.619,2.072,0.951c0.364,0.156,0.625,0.365,0.958,0.534c0.319,0.176,0.639,0.346,0.912,0.561
	c1.232,0.775,2.313,1.746,3.297,2.809c0.964,1.068,1.824,2.28,2.469,3.597c1.304,2.6,1.962,5.597,1.675,8.326
	c-0.261,2.737-1.407,5.135-3.205,6.647c-0.899,0.736-1.955,1.237-3.018,1.596c-1.081,0.28-2.156,0.45-3.166,0.431
	c-1.023,0.025-1.955-0.124-2.782-0.222c-0.802-0.183-1.538-0.307-2.098-0.476c-1.141-0.346-1.76-0.534-1.76-0.534
	s0.541,0.371,1.538,1.042c0.508,0.339,1.173,0.672,1.948,1.102c0.814,0.346,1.746,0.795,2.86,1.081
	c1.108,0.339,2.41,0.516,3.876,0.541c1.453-0.059,3.069-0.332,4.686-1.049c1.59-0.743,3.127-1.89,4.397-3.375
	c1.277-1.485,2.287-3.277,2.978-5.219C408.663,281.599,408.774,277.07,407.641,272.679z M355.581,138.444
	c-1.036,0.033-1.863-0.052-2.528-0.117c-1.316-0.156-2.176-0.163-3.388-0.437c-1.192-0.267-2.516-0.782-3.714-1.29
	c-1.167-0.528-2.235-0.99-2.979-1.31c-0.769-0.313-1.251-0.45-1.251-0.45s-0.286,0.358-0.651,1.14
	c-0.371,0.782-0.756,1.968-0.795,3.649c-0.02,1.655,0.358,3.89,2.072,6.314c0.847,1.212,2.104,2.378,3.707,3.362
	c1.604,0.971,3.591,1.629,5.682,1.851c2.099,0.208,4.287-0.026,6.294-0.619c2.02-0.593,3.891-1.518,5.545-2.613
	c3.35-2.196,5.877-5.102,7.663-7.864c1.772-2.802,2.795-5.454,3.31-7.376c0.241-0.964,0.424-1.733,0.495-2.274
	c0.078-0.528,0.124-0.821,0.124-0.821s-0.222,0.202-0.612,0.561c-0.385,0.358-0.978,0.854-1.701,1.44
	c-1.446,1.166-3.597,2.554-6.026,3.773c-2.463,1.192-5.239,2.196-7.786,2.671C357.783,138.281,356.591,138.405,355.581,138.444z
	 M365.635,236.523c-3.565,2.163-5.545,4.691-6.913,6.848c-0.645,1.114-1.134,2.04-1.44,2.776c-0.306,0.723-0.417,1.179-0.417,1.179
	s0.326,0.326,0.971,0.763c0.651,0.417,1.675,1.017,2.997,1.381c2.659,0.802,6.907,0.854,11.514-1.929
	c2.268-1.393,4.548-3.453,6.502-5.799c1.948-2.339,3.591-4.951,4.848-7.355c1.277-2.398,2.138-4.64,2.711-6.23
	c0.554-1.622,0.834-2.6,0.834-2.6s-0.899,0.495-2.365,1.297c-1.48,0.781-3.486,1.876-5.753,2.99
	c-2.255,1.121-4.73,2.294-7.083,3.414C369.674,234.38,367.439,235.422,365.635,236.523z M338.666,302.553
	c1.232-1.896,1.994-3.923,2.477-5.864c0.944-3.929,0.749-7.499,0.306-10.673c-0.983-6.339-3.029-11.363-4.802-15.475
	c-1.811-4.111-3.44-7.277-4.521-9.513c-1.095-2.227-1.616-3.512-1.616-3.512s-0.11,1.395,0.039,3.916
	c0.149,2.515,0.58,6.131,1.107,10.478c0.515,4.326,1.18,9.467,1.075,14.712c-0.065,2.587-0.358,5.199-1.134,7.369
	c-0.384,1.075-0.841,2.065-1.453,2.867c-0.593,0.808-1.31,1.505-2.163,2.137c-0.241,0.149-0.476,0.293-0.697,0.443
	c-0.221,0.149-0.442,0.227-0.664,0.364l-0.332,0.176c-0.099,0.053-0.189,0.053-0.287,0.099c-0.222,0.039-0.365,0.143-0.626,0.176
	c-0.951,0.247-1.935,0.293-2.944,0.176c-2.001-0.215-4.105-1.114-5.91-2.411c-1.837-1.29-3.362-2.945-4.56-4.626
	c-1.166-1.714-2.02-3.479-2.502-5.141c-0.978-3.349-0.593-6.249,0.039-8.34c0.625-2.099,1.238-3.46,0.703-4.007
	c-0.234-0.261-0.717-0.268-1.439-0.007c-0.352,0.124-0.782,0.332-1.225,0.651c-0.443,0.307-0.958,0.685-1.44,1.212
	c-1.036,0.997-2.085,2.495-2.854,4.489c-0.77,1.968-1.186,4.431-1.036,7.096c0.365,5.33,2.965,11.422,8.347,16.119
	c2.697,2.326,6.189,4.313,10.451,5.011c2.104,0.352,4.391,0.332,6.613-0.163c2.391-0.502,4.534-1.609,6.333-2.853
	C335.806,306.13,337.435,304.435,338.666,302.553z M381.324,303.536c-0.626-0.039-1.304,0.033-2.092,0.072
	c-0.768,0.02-1.616,0.11-2.534,0.234c-0.892,0.039-1.864,0.149-2.86,0.234c-0.984-0.007-2.021,0.144-3.043,0.033
	c-2.06-0.053-4.092-0.339-5.962-1.102c-1.877-0.749-3.616-1.785-5.323-3.069c-0.886-0.579-1.629-1.368-2.463-2.02
	c-0.775-0.762-1.492-1.473-2.17-2.137c-0.639-0.717-1.244-1.375-1.817-1.968c-0.548-0.587-0.978-1.153-1.382-1.597
	c-0.781-0.893-1.264-1.4-1.264-1.4s-0.144,0.658-0.28,1.876c-0.052,0.607-0.163,1.375-0.156,2.235
	c0.032,0.873,0.071,1.876,0.183,2.99c0.195,1.095,0.417,2.326,0.801,3.616c0.502,1.264,0.951,2.678,1.858,4.014
	c0.775,1.401,1.935,2.724,3.251,3.987c0.717,0.58,1.453,1.18,2.248,1.721c0.847,0.476,1.733,0.938,2.626,1.354
	c3.766,1.525,7.655,1.584,10.764,1.004c1.609-0.222,2.978-0.769,4.261-1.219c1.245-0.52,2.333-1.134,3.31-1.7
	c0.925-0.639,1.72-1.258,2.385-1.838c0.664-0.579,1.14-1.218,1.524-1.752c0.729-1.082,0.944-1.962,0.58-2.574
	C383.422,303.908,382.542,303.595,381.324,303.536z M345.833,305.915c-0.515-0.763-0.847-1.153-0.847-1.153
	s-0.313,0.442-0.775,1.192c-0.443,0.742-1.127,1.785-1.863,2.932c-0.775,1.141-1.59,2.404-2.476,3.604
	c-0.809,1.12-1.662,2.313-2.548,3.563c-0.814,1.187-1.642,2.209-2.516,3.187c-0.221,0.228-0.442,0.463-0.651,0.703
	c-0.222,0.235-0.456,0.431-0.678,0.658c-0.417,0.476-0.898,0.848-1.303,1.277c-1.7,1.622-3.121,3.063-2.919,4.516
	c0.11,0.703,0.625,1.303,1.551,1.759c0.925,0.47,2.268,0.69,3.948,0.587c0.827-0.092,1.753-0.189,2.697-0.515
	c0.482-0.163,0.977-0.314,1.479-0.528c0.482-0.222,0.978-0.469,1.492-0.736c1.993-1.146,3.968-2.887,5.473-5.095
	c1.525-2.209,2.177-4.691,2.339-6.861c0.183-2.202-0.247-4.138-0.735-5.662C346.967,307.81,346.354,306.664,345.833,305.915z
	 M307.3,266.078c0.567-0.13,1.147-0.28,1.753-0.443c0.573-0.234,1.166-0.482,1.772-0.755c2.392-1.148,4.802-3.004,6.626-5.525
	c1.811-2.528,2.652-5.454,2.796-8.047c0.013-0.658,0.013-1.29-0.02-1.896c-0.053-0.605-0.163-1.198-0.274-1.753
	c-0.169-1.113-0.593-2.105-0.944-2.964c-0.332-0.873-0.853-1.59-1.238-2.196c-0.371-0.612-0.847-1.081-1.192-1.453
	c-0.717-0.73-1.147-1.081-1.147-1.081s-0.149,0.554-0.417,1.512c-0.195,0.925-0.639,2.222-1.16,3.583
	c-0.319,0.685-0.54,1.401-0.957,2.105c-0.189,0.346-0.339,0.711-0.534,1.056c-0.209,0.353-0.418,0.697-0.613,1.043
	c-0.854,1.381-1.752,2.685-2.697,4.026c-0.964,1.329-2.059,2.431-3.166,3.428c-0.274,0.234-0.548,0.469-0.828,0.723
	c-0.286,0.209-0.58,0.41-0.859,0.632c-0.535,0.482-1.147,0.763-1.675,1.173c-1.102,0.697-2.111,1.395-2.874,1.981
	c-0.775,0.632-1.271,1.315-1.315,2.039c-0.039,0.71,0.417,1.381,1.381,1.987c0.971,0.651,2.477,1.049,4.411,1.146
	C305.085,266.352,306.18,266.385,307.3,266.078z M323.244,317.486c0,0-1.701-0.521-3.845-0.508
	c-1.061,0.013-2.268,0.123-3.473,0.482c-1.186,0.385-2.404,0.958-3.525,1.975c-2.223,1.994-4.301,5.538-6.432,8.503
	c-0.541,0.743-1.049,1.44-1.518,2.065c-0.476,0.678-0.971,1.16-1.362,1.661c-0.814,0.971-1.31,1.564-1.31,1.564
	s0.736,0.149,2.033,0.319c0.639,0.064,1.453,0.201,2.307,0.188c0.859-0.013,1.844-0.039,2.893-0.104
	c2.033-0.222,4.385-0.651,6.47-1.466c0.541-0.188,1.069-0.397,1.584-0.612c0.495-0.241,0.977-0.502,1.439-0.763
	c0.906-0.534,1.812-1.068,2.47-1.72c1.395-1.264,2.28-2.652,2.736-4.026c0.488-1.343,0.6-2.645,0.515-3.786
	C324.064,318.998,323.244,317.486,323.244,317.486z M325.335,292.845c2.613-1.153,3.813-4.223,2.652-6.849
	c-1.147-2.619-4.216-3.811-6.835-2.658c-2.626,1.148-3.811,4.223-2.665,6.842C319.634,292.806,322.703,293.998,325.335,292.845z
	 M386.074,287.736c4.417-1.941,6.424-7.103,4.489-11.52c-1.955-4.418-7.115-6.425-11.526-4.477
	c-4.424,1.941-6.431,7.096-4.489,11.52C376.489,287.678,381.656,289.69,386.074,287.736z M322.208,275.305
	c2.561-1.134,3.74-4.118,2.6-6.691c-1.121-2.562-4.118-3.721-6.679-2.601c-2.573,1.134-3.733,4.118-2.6,6.692
	C316.65,275.266,319.653,276.432,322.208,275.305z"/>

</svg>
